<svg width="202" height="29" viewBox="0 0 202 29" fill="none" xmlns="http://www.w3.org/2000/svg">
<path d="M0.278409 6.3821V1.81818H21.7812V6.3821H13.7656V28H8.29403V6.3821H0.278409ZM30.6662 16.6477V28H25.2202V1.81818H30.5128V11.8281H30.7429C31.1861 10.669 31.902 9.76136 32.8906 9.10511C33.8793 8.44034 35.1193 8.10795 36.6108 8.10795C37.9744 8.10795 39.1634 8.40625 40.1776 9.00284C41.2003 9.59091 41.9929 10.4389 42.5554 11.5469C43.1264 12.6463 43.4077 13.9631 43.3991 15.4972V28H37.9531V16.4688C37.9616 15.2585 37.6548 14.3168 37.0327 13.6435C36.419 12.9702 35.5582 12.6335 34.4503 12.6335C33.7088 12.6335 33.0526 12.7912 32.4815 13.1065C31.919 13.4219 31.4759 13.8821 31.152 14.4872C30.8366 15.0838 30.6747 15.804 30.6662 16.6477ZM47.685 28V8.36364H53.131V28H47.685ZM50.4208 5.83239C49.6112 5.83239 48.9165 5.56392 48.337 5.02699C47.766 4.48153 47.4805 3.82954 47.4805 3.07102C47.4805 2.32102 47.766 1.67756 48.337 1.14062C48.9165 0.59517 49.6112 0.322442 50.4208 0.322442C51.2305 0.322442 51.9208 0.59517 52.4918 1.14062C53.0714 1.67756 53.3612 2.32102 53.3612 3.07102C53.3612 3.82954 53.0714 4.48153 52.4918 5.02699C51.9208 5.56392 51.2305 5.83239 50.4208 5.83239ZM62.9396 16.6477V28H57.4936V8.36364H62.6839V11.8281H62.9141C63.3487 10.6861 64.0774 9.78267 65.1001 9.1179C66.1229 8.4446 67.3629 8.10795 68.8203 8.10795C70.1839 8.10795 71.3729 8.40625 72.3871 9.00284C73.4013 9.59943 74.1896 10.4517 74.7521 11.5597C75.3146 12.6591 75.5959 13.9716 75.5959 15.4972V28H70.1499V16.4688C70.1584 15.267 69.8516 14.3295 69.2294 13.6562C68.6072 12.9744 67.7507 12.6335 66.6598 12.6335C65.9268 12.6335 65.2791 12.7912 64.7166 13.1065C64.1626 13.4219 63.728 13.8821 63.4126 14.4872C63.1058 15.0838 62.9482 15.804 62.9396 16.6477ZM84.8228 22.3494L84.8356 15.8168H85.6282L91.918 8.36364H98.1694L89.7191 18.233H88.4279L84.8228 22.3494ZM79.8881 28V1.81818H85.3342V28H79.8881ZM92.1609 28L86.3825 19.4474L90.0131 15.5994L98.5401 28H92.1609ZM111.286 8.36364V12.4545H99.4606V8.36364H111.286ZM102.145 3.65909H107.591V21.9659C107.591 22.4687 107.668 22.8608 107.821 23.142C107.975 23.4148 108.188 23.6065 108.461 23.7173C108.742 23.8281 109.066 23.8835 109.432 23.8835C109.688 23.8835 109.944 23.8622 110.199 23.8196C110.455 23.7685 110.651 23.7301 110.787 23.7045L111.644 27.7571C111.371 27.8423 110.988 27.9403 110.493 28.0511C109.999 28.1705 109.398 28.2429 108.691 28.2685C107.378 28.3196 106.228 28.1449 105.239 27.7443C104.259 27.3437 103.496 26.7216 102.951 25.8778C102.405 25.0341 102.137 23.9687 102.145 22.6818V3.65909ZM120.433 28.3707C119.18 28.3707 118.064 28.1534 117.083 27.7188C116.103 27.2756 115.328 26.6236 114.757 25.7628C114.194 24.8935 113.913 23.8111 113.913 22.5156C113.913 21.4247 114.113 20.5085 114.514 19.767C114.914 19.0256 115.46 18.429 116.15 17.9773C116.841 17.5256 117.625 17.1847 118.502 16.9545C119.389 16.7244 120.318 16.5625 121.289 16.4688C122.431 16.3494 123.352 16.2386 124.051 16.1364C124.75 16.0256 125.257 15.8636 125.572 15.6506C125.887 15.4375 126.045 15.1222 126.045 14.7045V14.6278C126.045 13.8182 125.789 13.1918 125.278 12.7486C124.775 12.3054 124.059 12.0838 123.13 12.0838C122.15 12.0838 121.37 12.3011 120.791 12.7358C120.211 13.1619 119.828 13.6989 119.64 14.3466L114.603 13.9375C114.859 12.7443 115.362 11.7131 116.112 10.8438C116.862 9.96591 117.829 9.29261 119.014 8.82386C120.207 8.34659 121.588 8.10795 123.156 8.10795C124.247 8.10795 125.291 8.2358 126.288 8.49148C127.294 8.74716 128.184 9.14347 128.96 9.6804C129.744 10.2173 130.362 10.9077 130.814 11.7514C131.265 12.5866 131.491 13.5881 131.491 14.7557V28H126.326V25.277H126.173C125.858 25.8906 125.436 26.4318 124.907 26.9006C124.379 27.3608 123.744 27.723 123.002 27.9872C122.261 28.2429 121.404 28.3707 120.433 28.3707ZM121.993 24.6122C122.794 24.6122 123.501 24.4545 124.115 24.1392C124.728 23.8153 125.21 23.3807 125.559 22.8352C125.909 22.2898 126.083 21.6719 126.083 20.9815V18.8977C125.913 19.0085 125.679 19.1108 125.38 19.2045C125.091 19.2898 124.762 19.3707 124.396 19.4474C124.029 19.5156 123.663 19.5795 123.297 19.6392C122.93 19.6903 122.598 19.7372 122.299 19.7798C121.66 19.8736 121.102 20.0227 120.625 20.2273C120.147 20.4318 119.777 20.7088 119.512 21.0582C119.248 21.3991 119.116 21.8253 119.116 22.3366C119.116 23.0781 119.385 23.6449 119.922 24.0369C120.467 24.4205 121.157 24.6122 121.993 24.6122ZM141.162 16.6477V28H135.716V8.36364H140.907V11.8281H141.137C141.571 10.6861 142.3 9.78267 143.323 9.1179C144.346 8.4446 145.586 8.10795 147.043 8.10795C148.407 8.10795 149.596 8.40625 150.61 9.00284C151.624 9.59943 152.412 10.4517 152.975 11.5597C153.537 12.6591 153.819 13.9716 153.819 15.4972V28H148.373V16.4688C148.381 15.267 148.074 14.3295 147.452 13.6562C146.83 12.9744 145.973 12.6335 144.882 12.6335C144.15 12.6335 143.502 12.7912 142.939 13.1065C142.385 13.4219 141.951 13.8821 141.635 14.4872C141.328 15.0838 141.171 15.804 141.162 16.6477ZM163.045 22.3494L163.058 15.8168H163.851L170.141 8.36364H176.392L167.942 18.233H166.651L163.045 22.3494ZM158.111 28V1.81818H163.557V28H158.111ZM170.384 28L164.605 19.4474L168.236 15.5994L176.763 28H170.384ZM184.357 1.81818L189.636 10.7415H189.841L195.146 1.81818H201.398L193.408 14.9091L201.577 28H195.21L189.841 19.0639H189.636L184.267 28H177.926L186.121 14.9091L178.08 1.81818H184.357Z" fill="#2E2E2E"/>
</svg>
